<?xml version="1.0" encoding="UTF-8" standalone="no"?>
<svg
   xmlns:dc="http://purl.org/dc/elements/1.1/"
   xmlns:cc="http://creativecommons.org/ns#"
   xmlns:rdf="http://www.w3.org/1999/02/22-rdf-syntax-ns#"
   xmlns:svg="http://www.w3.org/2000/svg"
   xmlns="http://www.w3.org/2000/svg"
   id="svg8"
   version="1.1"
   viewBox="0 0 162.14494 57.799393"
   height="57.799393mm"
   width="162.14494mm">
  <defs
     id="defs2" />
  <metadata
     id="metadata5">
    <rdf:RDF>
      <cc:Work
         rdf:about="">
        <dc:format>image/svg+xml</dc:format>
        <dc:type
           rdf:resource="http://purl.org/dc/dcmitype/StillImage" />
        <dc:title></dc:title>
      </cc:Work>
    </rdf:RDF>
  </metadata>
  <g
     transform="translate(-16.196942,-63.192549)"
     id="layer1">
    <path
       d="m 33.140856,102.54332 c -1.800424,-1.26591 -3.505174,-1.75219 -5.696995,-1.75219 -2.288287,0 -3.45694,0.82787 -3.45694,1.99652 0,1.31413 1.217679,2.04475 3.554988,2.09298 4.722854,0.14636 10.420636,1.12121 10.469662,7.74333 0.04744,3.89419 -2.873406,8.08254 -10.517896,8.08254 -3.554988,0 -7.20723,-0.68238 -11.296733,-4.09108 l 3.017311,-4.96639 c 2.970662,2.43535 5.844067,2.96986 8.375888,3.01888 2.045541,0.0497 3.653036,-0.77804 3.604011,-2.04395 0,-1.12123 -0.827862,-2.04475 -4.090291,-2.142 -4.480108,-0.19679 -10.079057,-2.04634 -10.079057,-7.69431 0,-5.454236 5.160111,-7.741752 10.371617,-7.741752 3.700476,0 6.670345,0.923539 9.202958,3.114567 l -3.458523,4.382855"
       style="fill:#131c1d;fill-opacity:1;fill-rule:nonzero;stroke:none;stroke-width:0.07907002"
       id="path43" />
    <path
       d="m 46.62783,107.75402 c 0,3.99227 2.824382,6.33036 6.330346,6.33036 3.944804,0 6.378579,-3.06871 6.378579,-6.08759 0,-3.45614 -2.190241,-6.62213 -6.378579,-6.62213 -3.505964,0 -6.330346,2.38635 -6.330346,6.37936 z M 59.581081,95.726698 h 6.573091 c 0,7.986082 0,16.069412 0,24.054692 h -6.329554 l -0.389817,-3.01891 c -1.607492,2.53103 -5.064436,3.50518 -7.401744,3.55499 -7.205652,0.0482 -12.416366,-4.62716 -12.416366,-12.56345 0,-7.985264 5.502483,-12.659878 12.611667,-12.562631 3.018895,0 5.843275,1.167078 7.108397,3.310665 l 0.244326,-2.775356"
       style="fill:#131c1d;fill-opacity:1;fill-rule:nonzero;stroke:none;stroke-width:0.07907002"
       id="path45" />
    <path
       d="m 70.877025,95.677681 v 24.103709 h 7.011928 V 95.677681 Z m 7.49821,-6.330353 c 0,5.259748 -7.985282,5.259748 -7.985282,0 0,-5.258151 7.985282,-5.258151 7.985282,0"
       style="fill:#131c1d;fill-opacity:1;fill-rule:nonzero;stroke:none;stroke-width:0.07907002"
       id="path47" />
    <path
       d="M 89.671968,85.744103 V 119.78139 H 82.708272 V 85.744103 h 6.963696"
       style="fill:#131c1d;fill-opacity:1;fill-rule:nonzero;stroke:none;stroke-width:0.07907002"
       id="path49" />
    <path
       d="m 109.63557,102.54332 c -1.802,-1.26591 -3.50597,-1.75219 -5.697,-1.75219 -2.28908,0 -3.45694,0.82787 -3.45694,1.99652 0,1.31413 1.21688,2.04475 3.55419,2.09298 4.72206,0.14636 10.41985,1.12121 10.46887,7.74333 0.0482,3.89419 -2.87261,8.08254 -10.51789,8.08254 -3.55418,0 -7.206436,-0.68238 -11.296729,-4.09108 l 3.018104,-4.96639 c 2.97067,2.43535 5.844065,2.96986 8.375875,3.01888 2.04555,0.0497 3.65225,-0.77804 3.60403,-2.04395 0,-1.12123 -0.82786,-2.04475 -4.09029,-2.142 -4.480917,-0.19679 -10.079856,-2.04634 -10.079856,-7.69431 0,-5.454236 5.160911,-7.741752 10.371616,-7.741752 3.70126,0 6.67114,0.923539 9.20374,3.114567 l -3.45772,4.382855"
       style="fill:#131c1d;fill-opacity:1;fill-rule:nonzero;stroke:none;stroke-width:0.07907002"
       id="path51" />
    <path
       d="m 125.94851,120.99194 c 0,0 -22.09534,-35.159281 23.35806,-57.799391 v 57.799391 h -23.35806"
       style="fill:#44b0c3;fill-opacity:1;fill-rule:nonzero;stroke:none;stroke-width:0.07907002"
       id="path53" />
    <path
       d="M 156.34382,120.99194 V 85.166887 c 0,0 7.25466,11.839172 21.99806,35.825053 h -21.99806"
       style="fill:#44b0c3;fill-opacity:1;fill-rule:nonzero;stroke:none;stroke-width:0.07907002"
       id="path55" />
  </g>
</svg>
